<svg id="图层_1" data-name="图层 1" xmlns="http://www.w3.org/2000/svg" viewBox="0 0 1565.52 588.3">
  <defs>
    <style>
      .cls-1 {
        fill: #082CFF;
      }

      .cls-2 {
        fill: #000;
      }
    </style>
  </defs>
  <title>1217</title>
  <circle class="cls-1" cx="724.47" cy="398.78" r="85.52" />
  <path class="cls-2"
    d="M773.58,187.66c53.8,6.51,31.27,46.91,9.87,30.34-.94-10.42-6.15-21.78-11.36-29.41Zm49.51,2.05c-4.28,18.42-11.91,52.49-13.4,61.61-1.12,5.77-2.05,12.28-1.86,16.94.56,11,9.31,16.94,8.75,34.25-.56,10.24-8.19,16.94-18.24,16.94-4.47,0-10.05-2.42-11.92-9.68,3.91-19.92,3.35-39.28-1.11-42.26a19.9,19.9,0,0,0-9.5-3v-3.35H784c2.8,0,3.73,0,6-3.72,3.91-6.33,3.91-6.33,30.53-68.31Zm-34.25-45.05c54.73,10.24,28.48,50.63,7.08,32-.38-11.17-4.28-22.71-8.57-31.28Zm110,91.21c11.36,21.4,32.58,37.41,53,45.6l-.55,2c-9.87,2.42-17.32,10.61-21,23.83C912.07,291.9,902,269,895.69,238.1V312c0,2.05-11.54,7.26-21.22,7.26h-4.84v-49.7c-13.22,16.19-30.71,29.78-51.19,40.39l-1.68-1.86c19-18.43,33.32-46.72,40.77-72.22H822.72l-1.49-5.21h48.4V203.29l32.2,3c-.37,2.24-1.49,3.91-6.14,4.66v19.73h15.63l11.36-15.45a17.5,17.5,0,0,1-10.42-2.42c-5.4-14.71-18.25-30.72-29.79-40.95l1.31-1.12c14.14.93,24.75,3.91,32.57,7.82.56-5.22,1.3-11.36,1.86-16.2H844.69c12.84,46.35-40.77,32.58-18.25,4.66,5.77-3.35,9.31-10.61,9.68-22.15H838a104.53,104.53,0,0,1,5.22,12.28h73.52l12.48-12.28,21.22,20.28c-1.49,1.68-3.17,2.24-7.08,2.42-5.21,4.1-13.21,10.24-20.1,15.08,15.63,11.54,12.84,27.74,3,31.65,4.09,3.53,14.7,12.28,21.4,18.61-.56,2.05-2.6,3-5.4,3Zm-11.72-46.72c-1.49,1.67-4.47,2.6-8.57.93A170.15,170.15,0,0,1,824,224.14l-1.48-1.67c11.91-12.66,27.17-34.25,37.6-55.29Z" />
  <path class="cls-2"
    d="M1000.48,168.3H956l-1.3-5.21h45.79v-22l31.09,2.61c-.37,2.42-1.68,4.28-6.52,5v14.34h36.49v-22l31.45,2.61c-.18,2.6-1.49,4.28-6.32,5v14.34h13.58l11.92-15.64s13.59,10.42,21.22,17.87c-.37,2.05-2.42,3-5,3h-41.69V180c0,1.86-7.64,4.28-17.5,4.65L1083.5,189c-.74,2.61-3.16,4.1-7.45,4.1-1.48,3.72-3.16,7.26-4.83,10.79H1096l12.29-18.8s14,12.85,21.78,21c-.56,2-2.61,3-5.22,3h-56.4c-8.93,16.38-20.29,29.23-34.06,38.35l-2-1.3c8-16.94,14.89-42.63,17.5-67l11.73,3.35V168.3h-36.49V181c0,1.86-9.49,5-20.66,5h-3.91ZM1121.1,289.11S1131,299.9,1136,306.6c-.37,2-2.23,3-4.84,3H957.67l-1.49-5.21h18.24V246.29l28.11,10.24h81.16l10.79-11c-3.53.74-7.63,0-11.91-3-1.49-10.24-7.45-21.41-13.4-28.48l1.49-.93c40.95,2.79,38.16,27.92,25.13,32l21.78,16.19c-.94,1.3-2.61,2.42-5.77,3v40h.74ZM974.42,191l29.6,2.42c-.37,2.6-1.68,4.47-6.89,5.21v41c0,1.86-10.24,5.77-19.17,5.77h-3.54Zm25.5,113.36H1012V261.74h-12.1Zm38.53-115.78c-.37,2.42-1.67,4.47-6.88,5.21v53c0,1.86-10.8,6.33-20.11,6.33h-3.72V186Zm-2.23,73.15v42.63h12.29V261.74Zm36.48,0v42.63h12.66V261.74Z" />
  <path class="cls-2"
    d="M1289.74,283.71s17.31,13,27.55,22c-.56,2.05-2.79,3-5.58,3H1139.9l-1.49-5.21h99l5.4-42.63h-42.44l-8.93,11.73L1166,259.32a32.38,32.38,0,0,1,6-4.84c5.77-23.64,12.85-68.5,14.34-87.86H1146l-1.49-5.21h121.36L1281,142.24s16.94,12.84,27.18,21.41c-.56,2-2.61,3-5.4,3h-87.49c-1.3,8.75-3.35,21.22-5.58,34.63h38.53L1260,187.1,1286,208.32c-1.86,2.05-3.54,2.61-8.19,3.35l-11.54,91.77h8.19Zm-46.16-28.11,6.14-49.14H1209c-3,17.5-6.14,35.92-8.74,49.14Z" />
  <path class="cls-2"
    d="M1377,234.75c49.14,28.11,23.82,70.55,3.72,48.58.19-2.6.37-5.21.37-7.81-11.17,6.14-25.5,13.4-41.88,20.66a12.39,12.39,0,0,1-5.21,4.65l-14-32.94s6-1.12,7.81-2.8c7.82-8.19,18.43-36.67,21.41-53.61h-27.18l-1.49-5.21h60.5l12.47-16.75s14.15,11.35,22.53,19c-.56,2-2.61,3-5.22,3h-56l29.22,8.94c-.74,1.86-2.61,3.54-6,3.72-9.86,15.08-27,33.88-41.32,45.05,11.17-.93,26.8-2.42,43.74-4.1A173.84,173.84,0,0,0,1375,235.5Zm-47.66-63.84-1.49-5.22h43l12.48-16.75s14.14,11.36,22.52,19c-.56,2-2.42,3-5.21,3Zm170.51,24.57c-1.49,1.67-3.91,3-8.19,3.72-1.68,75.94-4.47,98.84-15.45,109.26-6.89,6.52-15.26,9.31-26.43,9.31,0-8.37-.56-14.15-2.79-17.5-2.8-3.9-7.08-6.7-14.34-8.56l.19-2.23c5.58.56,14,.93,17.87.93a8.29,8.29,0,0,0,6.14-2.24c6.33-5.58,8.38-32.57,9.87-93.44H1448c-1.49,57.15-9.68,97.73-67.57,124.53l-1.68-2.42c37-31.46,42.63-70,43.19-122.11h-19.18l-1.67-5.21h20.85c0-14.71-.19-30.34-.19-47.28l33.88,3c-.56,3-2.61,4.65-7.07,5.4-.19,13.77-.19,26.61-.38,38.9h16.57l13.4-13.4Z" />
  <path class="cls-2"
    d="M133.17,39.33a4.05,4.05,0,0,0-1.65-3.15c-.68-.39-2.42.18-3.15.88a99.75,99.75,0,0,1-13.72,11c-4.73,3.17-8.29,7.75-8.68,14-.08,1.34-.24,2.6-2.49,3.09a11.19,11.19,0,0,0-6.34,4.24C93.75,74.4,91,79.86,87.8,85.5c-.58-.64-1.24-1.35-1.87-2.08C77.93,74.23,70.44,64.51,61.8,56c-9.55-9.44-20-18-30.42-26.51-3.77-3.06-8.61-4.9-13.18-6.78-1.69-.69-4,.11-6,.23.24,1.8,0,3.86.83,5.36,2.31,4.26.75,7.58-1.75,11a3.46,3.46,0,0,0-.53,2.87,22.56,22.56,0,0,0,2.89,4.31c2,2.58,3.73,5.37,6.06,7.56s5,3.45,7.54,5.08c1,.65,2.29,1,.81,2.52-2.57,2.67-4.69,5.57-3.74,9.66a9.94,9.94,0,0,1,0,1.88c.18,4.14-.15,8.38.68,12.38,1.91,9.21,5.2,17.73,12.38,24.54,3,2.81,5.59,4.91,9.7,4.81,5.15-.14,9.16,2.24,12.85,5.58A10.07,10.07,0,0,0,64.5,123,93.54,93.54,0,0,0,76,124.14c2.06.11,4.18-.58,6.19-.3a5.79,5.79,0,0,0,4.94-1.54c.5-.43,1.06-.79,1.87-1.39.38,1.61.58,2.84,1,4,1,2.85,3.93,3.65,5.54,1.26,2.37-3.52,5-7.14,6.11-11.12,1-3.54,2.87-4.65,5.83-5.35,3.83-.91,3.9-1,4-5.15,0-1.67-.44-3.52.12-5,1-2.51,2.65-4.72,3.87-7.14,3-6,6-12.08,8.87-18.19.86-1.85,1.17-4,1.93-5.87,1.7-4.25,4.11-8.32,5.13-12.72C132.57,50.36,132.77,44.8,133.17,39.33ZM91.42,119.81c-1,2.08-2.57.37-3.6-.29-.62-.41-1.27-2-1-2.38,2.19-2.87,4.56-5.61,7-8.28.41-.46,1.38-.41,2.65-.74C94.63,112.42,93.21,116.21,91.42,119.81Zm33.22-53.64c-.91,3.13-1.79,6.28-3,9.31-1,2.42-2.37,4.65-3.54,7-2.1,4.2-4.06,8.49-6.29,12.63-1.3,2.41-2.59,5-6.18,4.78a16,16,0,0,0-4.81.73c-2.73.7-4.52-.49-5.86-2.68-1.88-3.07-3.72-6.18-5.31-8.83a44.73,44.73,0,0,1,2-5.43c1.38-2.7,3-5.29,4.52-7.91a18.07,18.07,0,0,0,1.89-2.91c1.31-3.69,3.67-5.69,7.71-5.41,1.55.11,2-.78,2-2.19.21-3.42.8-3.92,4.15-3.44,3.67.52,7.31,1.28,11,1.75C124.76,63.79,125,64.79,124.64,66.17Zm1.19-4.71L109,59.15c1-3.74,1.59-4.25,4.8-3.81,4.71.64,9.4,1.42,14.45,2.19C127.26,59.18,126.62,60.19,125.83,61.46ZM115.56,50.87,131,37.81l.62.3c-.82,4.89-1.63,9.77-2.45,14.67Z" />
  <path class="cls-2"
    d="M684.53,171.91a259.41,259.41,0,0,1,1.3,55.92c1.89,1,3.73,2.11,5.55,3.25a253.94,253.94,0,0,0,.68-41.52,316.84,316.84,0,0,1,21,114.72,303,303,0,0,1-13.32,89.4c.75.52,1.51,1,2.29,1.5a305.33,305.33,0,0,0,13.68-90.9c0-43.72-8.42-85.71-24.34-123.46q-.47-4.92-1.1-10,5.43,11.89,9.92,24.47a324.57,324.57,0,0,1,18.47,109,308.91,308.91,0,0,1-14.51,94.12l-3,1.53,9.34,13.14s9.06-50.6,10.86-63.84l-.08.27a322.1,322.1,0,0,0,3.19-45.22,330.24,330.24,0,0,0-18.81-111,303.26,303.26,0,0,0-18.06-41l-.06-.34q-4-7.5-8.42-14.7l.06.3c1,5.7,2,11.11,2.77,16.29,0,.11,0,.22.06.33q.76,4.82,1.42,9.4Z" />
  <path class="cls-2" d="M230.63,509.9c4.08-3.14,25.87-2.65,29.77,0Z" />
  <path class="cls-2"
    d="M255.45,497.5v7.1l-4.85-3.2a17.74,17.74,0,0,0,2.07-1.56c1.3-1.35,1.21-2.56-.16-4a57.24,57.24,0,0,1-6.1-7.11c-1.24-1.79-2.55-3.63-4.64-2.69-1.26.58-1.84,2.76-2.62,4.28-.21.4,0,1,0,1.88-2.18-1.33-4.32-2.18-2.31-5,1.4-2,.52-5.88,4.67-5.55,4.55.36,8.56,1.66,10.6,6.28.5,1.14,1,2.27,1.51,3.4l1.15.09c.74-2.28,1.49-4.57,2.34-7.16a40.06,40.06,0,0,1,3.65,3.43c.32.37.1,1.59-.29,2.13-3.05,4.25-3,4.63,1.09,8a5.7,5.7,0,0,1,.56.94Z" />
  <path class="cls-2"
    d="M284.35,510.28c.48-2.47,2.44-2.76,4.35-3,3.67-.46,5.82.76,6.55,3.77-4.08.65-8.18,1.26-12.32,1.79A4.22,4.22,0,0,0,284.35,510.28Z" />
  <path class="cls-2"
    d="M269.29,519.4c.24-.18.47-.36.71-.52a22.38,22.38,0,0,1-2.58-.13c1-.43,2-.88,3.05-1.35.68.58,1.37,1.15,2.06,1.71C271.45,519.22,270.37,519.3,269.29,519.4Z" />
  <path class="cls-2" d="M280.72,518.22c-.9-.7-1.79-1.41-2.68-2.12l3.31-.4c.89.72,1.79,1.42,2.7,2.12Z" />
  <path class="cls-2"
    d="M287.76,517.33c-.92-.69-1.83-1.39-2.74-2.09,1.34-.18,2.66-.39,4-.58v0l22.41-1.33C303.65,514.9,295.77,516.24,287.76,517.33Z" />
  <path class="cls-2"
    d="M436.9,454.27q-7.59,5.64-15.72,10.83a291.47,291.47,0,0,1-38.69,20.65c-.56-1.11.39-2.55,1.15-3.82,1.23-2.1,2.45-4.44,4.3-5.88,7.7-6,15.39-12.07,23.58-17.36a29.93,29.93,0,0,1,11.54-4.21,56.42,56.42,0,0,1,9.19-.61A31,31,0,0,1,436.9,454.27Z" />
  <path class="cls-2"
    d="M358.32,495.29q-9.09,3.18-18.51,5.9c-.06-1.66,1.06-2.09,2.48-2.62,3.74-1.38,7.41-2.92,11.13-4.36C355.28,493.49,356.78,493.36,358.32,495.29Z" />
  <path class="cls-2"
    d="M425.2,469.33c-29.56,18.72-63.79,32.64-101.11,41.33q4.83-2.16,9.64-4.34c1.23-.56,2.49-1.08,3.67-1.73a343,343,0,0,0,36.26-12.26c1.95-.65,3.91-1.26,5.84-1.94a6.75,6.75,0,0,0,1.81-1.1l.36-.32a295.09,295.09,0,0,0,40.93-21.64q9.21-5.88,17.73-12.35a38.86,38.86,0,0,1,3.82,1.18Q435.08,463.07,425.2,469.33Z" />
  <path class="cls-2"
    d="M619.05,392.93a40.31,40.31,0,0,0-10-24.54,4,4,0,0,1,.27-.34c.27-.34.54-.67.79-1A42,42,0,0,1,619.05,392.93Z" />
  <path class="cls-2" d="M611.26,346.47c-1.25-.92-2.54-1.8-3.86-2.62l-.81,1.33c1.28.79,2.53,1.64,3.74,2.53Z" />
  <path class="cls-2" d="M605.22,342.57c-.91-.51-1.84-1-2.78-1.46l-.68,1.4c.91.44,1.81.91,2.69,1.4Z" />
  <path class="cls-2"
    d="M333.27,347.36c5.72.7,11.71,1.74,17.25.73,8.68-1.59,17.08-4.74,25.6-7.24,1.54-.45,1.75-1.39.94-2.68-.44-.69-.93-1.34-1.31-2.06-4.39-8.12-9.46-16-12.94-24.45-3.73-9.08-3.63-18.47,3.26-26.63a3.62,3.62,0,0,0,.42-1.07c-12,4.67-20.84,13.38-29.84,21.78a88.46,88.46,0,0,0-20.94,30c3.54,2.76,7.06,5.72,10.81,8.34C328.56,345.53,330.91,347.08,333.27,347.36Z" />
  <path class="cls-2"
    d="M368.38,301.83c5.69,6.76,12.7,11.88,21.87,13.07,1.84.24,3.69.37,5.9.59-.78,1.54-1.46,2.7-2,3.92-1.16,2.72-.14,6.08,1.89,5.93,7.48-.55,15-1,22.39-2.2,2.69-.45,4.91-3.41,8.46-2.22a51.55,51.55,0,0,0-13.3-14.11,183.7,183.7,0,0,1-14.85-12.18c-2.3-2.05-2.77-5-1.91-8.05a16.4,16.4,0,0,0,.31-1.84,12.77,12.77,0,0,0-1.36-.6,6.78,6.78,0,0,0-1.59-.36c-7.59-.44-15.06.11-22.07,3.35C366.07,289.94,364.07,296.72,368.38,301.83Z" />
  <path class="cls-2"
    d="M411.4,291.32c-2.2-1.49-4.46-2.9-6.89-4.48-1,2.36.23,3.59,1.35,4.63,3.06,2.82,6.29,5.46,9.34,8.29,1,.95,2.38,2.21,2.46,3.4.16,2.45,1.58,3.93,2.93,5.61,2.49,3.1,5,6.18,7.31,9.45a4.58,4.58,0,0,0,5.57,2,18.87,18.87,0,0,1,4.84-.59c3.6,0,5.85,2.6,5.64,6.2a8.69,8.69,0,0,1-5.53,7.11c-.79.32-2,1.46-1.85,1.93,1.09,4.21,2.4,8.34-.26,12.6l1.06.38a57.13,57.13,0,0,0,3.75-5.44c1.35-2.47,3.05-2.87,5.79-2.43,7.65,1.23,15,.9,20.9-5.32a8.72,8.72,0,0,1,2.26-1.47c1.3-.73,2.42-.61,3.18.84.67,1.27,1.51,2.48,3.16,1.61a2.63,2.63,0,0,0,1.06-4c-1.88-2.7-3.66-6-6.33-7.53-9.52-5.57-19.45-10.44-29.12-15.76-7.73-4.25-16.41-6.64-23.54-12.08C416.18,294.6,413.79,293,411.4,291.32Z" />
  <path class="cls-2"
    d="M431.39,368.27c-3.5-4.33-6-9-6.53-14.68-.05-.55-1.34-1.33-2.08-1.37a37.11,37.11,0,0,0-5,.36l-.4-.71c1.1-.78,2.23-1.5,3.28-2.34s2.84-1.73,3-2.83a77.65,77.65,0,0,0,.64-9.56l-.52-.35a27.33,27.33,0,0,0-2,3.07c-5.16,10.9-16.11,16.66-27.26,13.58-3.74-1-6-.17-8.69,2.09-1.42,1.21-3.52,2.41-5.22,2.29-2.81-.2-3.9,1.49-5.7,3,5.7,1.17,11.32,1.24,16.06,4.5,1.69-2.34,3.25-2.77,4.13-.91,1.32,2.76,3.64,4.2,6.24,5.34,3.79,1.65,7.58,3.28,11.41,4.81a11.75,11.75,0,0,0,3.68.86,35.13,35.13,0,0,0,17.44-3A34.53,34.53,0,0,0,431.39,368.27Z" />
  <path class="cls-2"
    d="M441.08,299.73c9.54,3.15,19,6.78,28.7,9.21,5.59,1.39,8.21,4.85,10.66,9.24a3.39,3.39,0,0,0,2.42,1.48c.6,0,1.63-1,1.83-1.67a38.88,38.88,0,0,1,7.74-14.23c2.57-3.13,5.27-6.16,8.14-9.5-5.17-3.32-10.18-5.38-16.32-3.67-8.1,2.26-16.31,4.17-24.52,6.05-6.26,1.43-12.59,2.85-18.93.11C439.65,297.92,438.89,299,441.08,299.73Z" />
  <path class="cls-2"
    d="M488.12,278.94c0,.14.13.31.35.82.93-.35,2.11-.47,2.79-1.12,2.87-2.73,5.89-5,7.73-9.07s1.18-6.61-.67-9.69c-1.69-2.82-3.49-3.55-6.6-2.77-2.18.55-4.38,1.09-6.51,1.84-3.78,1.34-7.5,2.84-10.76,4.08v6.45c2.44.22,4.76.36,7.07.64C488.05,270.92,489.27,272.58,488.12,278.94Z" />
  <path class="cls-2"
    d="M397.87,346.31A56.12,56.12,0,0,0,421.7,329a11.32,11.32,0,0,0-2.07.15,48.45,48.45,0,0,1-28.61.36,8.71,8.71,0,0,0-3.49-.07c-1.61.24-2.2,1.17-1.2,2.69,2.93,4.46,5.81,9,8.87,13.34A3,3,0,0,0,397.87,346.31Z" />
  <path class="cls-2"
    d="M438.58,374.9c-6.71.82-14,8.12-14.63,14.32a8.1,8.1,0,0,0,6.1,8.53c3,.87,6.15,1.48,9.24,2.19.09,0,.24-.21.42-.38C435.08,391.67,436.7,383.41,438.58,374.9Z" />
  <path class="cls-2"
    d="M364.3,362c-4.6-.74-8.85.79-12.55,3.36-3.13,2.17-4.77,12.95-2.8,16.65,5.83-4.11,11.67-8.18,17.45-12.33a4,4,0,0,0,1.24-5.15A5.2,5.2,0,0,0,364.3,362Z" />
  <path class="cls-2"
    d="M486.07,325c.34,5.47.66,10.79,1,16.11a9,9,0,0,0,4.1,7,18.53,18.53,0,0,1,2.51,2.64c2.34-2.45,3.86-7,3.71-12.41a20.7,20.7,0,0,0-1.11-6.61C494.72,327.68,489.62,324.42,486.07,325Z" />
  <path class="cls-2"
    d="M367.25,349.51a16.65,16.65,0,0,0-5,.13,64.64,64.64,0,0,0-17.68,6.64c-3.24,1.69-2.78,5.22-4.83,7.36-.12.12,0,.54.08.78,1,2.35,2.08,4.7,3.36,7.59C349.16,361.77,357.84,355.36,367.25,349.51Z" />
  <path class="cls-2"
    d="M421.06,273.36H400.77l-.37.34c2.42,1.08,4.85,2.12,7.25,3.24C412,279,416.85,277.91,421.06,273.36Z" />
  <path class="cls-2"
    d="M508.18,354.17c2.61-5.83,1-12-3.44-14.17a82.69,82.69,0,0,0-2,8.62,5,5,0,0,0,1.44,3.56C505.16,353.13,506.71,353.48,508.18,354.17Z" />
  <path class="cls-2"
    d="M304.4,175c0-1.48.53-3.08.14-4.43-2.71-9.53-18-11.89-23.55-5.71a4.41,4.41,0,0,1-2.11,1.12c-1.85.48-1.87,1.57-1.49,2.59,3.77-.19,7.27-.61,10.74-.49,4.32.15,6.74,2.37,8,6.46,2.46,7.92-.49,14.33-5.53,20.18-.61.71-1.17,1.46-1.76,2.19l.45.89c1.54-.43,3.34-.5,4.6-1.35a27,27,0,0,0,11.45-15.89c.17-.65-.26-1.46-.4-2.2A24.28,24.28,0,0,1,304.4,175Z" />
  <path class="cls-2"
    d="M269.13,84.13A301.52,301.52,0,0,1,350.3,35.35h0c30.48-12.2,61.57-18.55,92.4-18.87C476,16.2,507.37,21,536.1,30.53a256.17,256.17,0,0,1,43.3,19A268.28,268.28,0,0,1,618.56,76l.3.25L623,71.11l-.3-.24a275.29,275.29,0,0,0-40.26-26.95A261.21,261.21,0,0,0,538,24.7a275.76,275.76,0,0,0-47.15-10.87,318.1,318.1,0,0,0-48.24-3c-31.52.49-63.23,7.14-94.26,19.75a306.64,306.64,0,0,0-82.24,50l-.29.25,3,3.56Z" />
  <path class="cls-2"
    d="M260.38,92.2q1.71-1.55,3.43-3.06l.29-.26L259,83.07l-.29.25q-1.77,1.56-3.51,3.14l-.29.26,5.22,5.74Z" />
  <path class="cls-2"
    d="M249.85,102.21c1.59-1.58,3.21-3.16,4.82-4.69l.28-.27-5.35-5.61-.28.27c-1.65,1.57-3.31,3.19-4.94,4.81l-.27.27,5.47,5.5Z" />
  <path class="cls-2" d="M243.14,109.11l1.08-1.14.27-.28-5.61-5.36-1.64,1.73,5.63,5.33Z" />
  <path class="cls-2"
    d="M551.93,386.72a27.1,27.1,0,0,0-1,2.72l-.12.37,2.59.82.11-.37c.27-.82.58-1.64.93-2.44l.15-.35-2.48-1.1Z" />
  <path class="cls-2"
    d="M554.32,382.44c-.41.6-.79,1.21-1.15,1.83l-.19.33,2.35,1.35.2-.33c.32-.56.66-1.11,1-1.64l.22-.32-2.24-1.54Z" />
  <path class="cls-2"
    d="M570.59,337.2a57.45,57.45,0,0,1,6.56-.38,55.45,55.45,0,0,1,22.23,4.59L600,340a57.16,57.16,0,0,0-22.86-4.72,58.5,58.5,0,0,0-6.75.39Z" />
  <path class="cls-2"
    d="M565.28,336.5l.33,1.51c.92-.19,1.84-.36,2.76-.5l-.23-1.54C567.19,336.12,566.23,336.3,565.28,336.5Z" />
  <polygon class="cls-2" points="696.27 427.16 692.2 436.24 698.9 436.24 702.97 427.16 696.27 427.16" />
  <path class="cls-2"
    d="M687,450.45,668.17,445,659,455.59,243.73,569.82l-1.41-4.66L660.69,450.73l-1.23-4.49L232,563.16l-3.59-14.63L230,545c.91.53,1.58.92,1.72,1,4.24,1.61,5.69,1.1,8.24-2.57a100,100,0,0,1,7.23-9.81c2.49-2.79,5.05-5.54,8.11-7.32,2.17-.13,4.33-.26,6.49-.42,1.51-.11,3-.22,4.51-.35l3.77-.33c3-.27,6-.58,8.92-.91q4.17-.46,8.3-1l3.4-.47,3.77-.55c50-7.53,95.69-23.85,133.82-48C471.93,446.63,504.85,408.91,521,368c12.57-31.78,14.77-63.66,7.07-93.08a335.29,335.29,0,0,1,23.33,59.13c.37,1.23.73,2.47,1.07,3.69,1.31,4.7,2.57,9.51,3.72,14.29l0,.08c0,.18.08.35.13.52-.9.47-1.8,1-2.66,1.48l-.47.3c-.43.27-.88.54-1.3.83l-.58.4c-.38.26-.76.53-1.13.81l-.62.46-1,.82-.61.51c-.33.28-.67.56-1,.86l-.59.52-1,.92c-.19.18-.38.36-.55.54-.33.33-.64.67-1,1l-.48.52c-.34.38-.67.77-1,1.16l-.35.42c-.44.52-.87,1.07-1.28,1.61v0c-.44.57-.86,1.17-1.27,1.77l0,.06c-.38.56-.75,1.13-1.1,1.71l-.23.4c-.29.47-.57.94-.83,1.43q-.14.24-.27.51c-.24.45-.48.92-.71,1.38-.09.18-.17.37-.26.55-.22.47-.43.93-.64,1.41-.07.18-.15.37-.23.55-.2.49-.39,1-.57,1.46l-.2.54c-.19.52-.37,1-.54,1.57a4.26,4.26,0,0,1-.15.47c-.17.58-.34,1.17-.5,1.77,0,.1,0,.19-.08.3-.36,1.43-.67,2.89-.9,4.38h0a45.61,45.61,0,0,0,1.46,20.16l5.08,47.38h0a2.31,2.31,0,0,0,1.34,2.11L545,458,485.7,485.6l4.1.66,58.83-27.4.21-.1.08,0h0a2.26,2.26,0,0,0,1-1,2.31,2.31,0,0,0-1.14-3.08L541,451,537,414a45.37,45.37,0,0,0,83-5.87h0c.1-.29.19-.59.29-.88l.3-.9c.19-.63.37-1.26.54-1.9.07-.27.13-.55.19-.83s.2-.8.29-1.21.11-.62.18-.93.14-.76.2-1.15.1-.64.15-1,.1-.77.14-1.16.08-.64.11-1,.06-.81.09-1.22l.06-.93c0-.52,0-1,0-1.57,0-.19,0-.36,0-.55a45.14,45.14,0,0,0-10.23-28.69l.36-.45c3.11-4,6.11-8.12,8.88-12.12.76-1.1,1.5-2.19,2.24-3.29a272.86,272.86,0,0,0,43-109.22,322.32,322.32,0,0,0,4-56.41q0-3.27-.14-6.57c-.06-2-.14-3.91-.24-5.87q-.32-7-.93-14.1-.61-7.42-1.53-15l-.78-6.07q-.5-3.72-1.07-7.45c-.65-4.28-1.65-10.23-2.44-14.56-12-15-26-30.06-37-39.38l-4.51,5.31c10.54,8.93,24.84,24.49,36.46,39,.38,2.11.73,4.2,1.07,6.3l.89,5.79c.73,4.82,1.35,9.6,1.9,14.35A260,260,0,0,0,638.17,112,240.58,240.58,0,0,0,556.35,51c-33.24-15.14-70.08-22.81-109.51-22.81-66.58,0-135.49,29.44-189,80.79a302.13,302.13,0,0,0-31.9,35.79q-4.65.76-8.7,1.61l-3.81.81c-1.57.35-3,.71-4.43,1.07l-.82.21a334.79,334.79,0,0,1,27.59-32.91l-3.84-3.61a341,341,0,0,0-32.13,39.14c-.65.93-1.29,1.86-1.92,2.78l.17.34,1.08,2.11c-2.24.94-4.94,2.08-6.05,2.43a7.9,7.9,0,0,1-2.39.14c-.89,0-2-.41-2.65-.05-3.06,1.59-5.47,1.87-6.45-2.28-.07-.31-.45-.56-.7-.82-3.13-3.31-3.73-7.07-.77-10.38,3.18-3.56,4.78-8.65,10-10.19a29,29,0,0,0-3.22-2.59c-1.67-1-3.27-3.3-5.44-.5-.26.35-1.86,0-2.59-.49-.38-.24-.48-1.48-.23-2.07,1.08-2.6,2.84-3.34,7.14-2.78-.7-2.29-1.17-4.32-2-6.22-.9-2.16-3.09-2.87-4.72-1.67-3.32,2.42-7.09,4.9-9.05,8.3s-3.22,6.77-7.29,8.1A4.2,4.2,0,0,0,161,137c-1.47,2.2-2.85,4.46-4.35,6.82l-7-6.89a2.83,2.83,0,0,1-.84-1c-.26-1-.11-2.24-.58-3.14-1.79-3.43.09-5.33,2.75-6.76a57.08,57.08,0,0,1,6.9-3c1.52-.58,1.92-1.27,1.26-2.85a8.68,8.68,0,0,1,.62-7.77c4.13-8,10.14-14.5,16-21.13.6-.67,1.23-1.32,1.84-2l-.44-.52c-.61.3-1.22.57-1.81.89-2.29,1.25-4.45,2.89-6.88,3.69a37.34,37.34,0,0,0-20,15.45c-3.95,6-7.35,12.38-11,18.53,2.7,3.24,4.66,8.71,5.15,14.27.31,3.41,1,6.84-.73,10.12-1.64,3-1.14,4.64,2,6.37a15.08,15.08,0,0,1,4.94-.63,40,40,0,0,1,5.58,1.12c6.73,1.54,9,5.59,6.39,11.79-.87,2.08-.42,3.45.91,5.15a23.08,23.08,0,0,1,3,5.85,2.78,2.78,0,0,1-.64,2.4c-.31.32-1.49,0-2.2-.27-1.58-.56-3.11-1.25-4.22-1.7a47.16,47.16,0,0,1-2.63,5.32,8.75,8.75,0,0,0-.76,8.77c.34.81.69,1.61,1.13,2.66-1.22.66-2.31,1.75-3.4,1.75-4.57,0-7.6,2.51-10.29,5.73-3.91,4.68-4.23,8.24.28,12.2,4.34,3.8,6.68,8.47,8.37,13.63,1.19,3.64,3.66,6,6.71,7.87,2,1.24,3.93,2.52,6,3.61,8.79,4.68,17.61,9.28,26.41,13.93,1.54.82,3,1.78,5.14,3.07a16.7,16.7,0,0,1-2.92,1.23c-5.33.84-10.73,1.31-16,2.49-6.22,1.4-11.32,4.7-14.38,10.63s0,11.77,6.64,13.33c7.17,1.69,14.36,1.64,21.6,1.61,4.45,0,5.33,1.08,4.45,5.37a75.79,75.79,0,0,0-1.57,8.22c-.38,4.14-.86,8.36-.38,12.44.33,2.85-.66,3.8-2.89,4.39a11.66,11.66,0,0,1-3.2.49c-7-.1-13.94-.37-20.91-.42-6.82,0-12.21-3-16.64-7.9s-5.32-10.56-3-16.7c.7-1.89,1.68-3.68,2.67-5.81l-2.94.66a15.53,15.53,0,0,0-1.23-3.1c-.61-.91-1.55-2.2-2.4-2.24-4.55-.22-9.11-.1-13.67-.1a8,8,0,0,0,2.93,1c1.39.37,3.33.43,4,1.37,2.76,3.81,6.41,7.63,7.34,12a39.92,39.92,0,0,0,9.34,18.94A27.53,27.53,0,0,0,167,327c-.21,2.13-.49,4-.58,5.95a47.56,47.56,0,0,0,.05,6,8.08,8.08,0,0,0,4.35,6.8,10.81,10.81,0,0,0,3,.63l.24-3.09a10.92,10.92,0,0,1,.19-2.51c.61-1.85,1.34-3.67,2.11-5.46.25-.59.75-1.49,1.16-1.51a2.55,2.55,0,0,1,1.91,1c2.39,3.45,3.82,3.36,5.77-.44a18.81,18.81,0,0,1,1.31-2.37,6,6,0,0,1,9.19-1c2.94,2.6,3.48,5.73,1.8,9.33a3.15,3.15,0,0,0,0,2.28c2.17,5.27,4.33,10.54,6.7,15.72,2,4.43,5.84,5.86,10.53,4.23,1.46-.51,2.86-1.16,4.34-1.6a16.21,16.21,0,0,1,2.69-.43c.51,4.29,1,8.2,1.45,12.31-3.08-.92-5.9-1.88-8.79-2.54a3.83,3.83,0,0,0-3.15.57c-.53.6-.23,2.1,0,3.16a2.71,2.71,0,0,0,1.12,1.47c2.16,1.52,2,3.09.83,5.33s-2.16,5.39-.18,7.7c4.87,5.7,10.5,10.4,18.29,11.63,2.92.46,3.61,1.83,2.81,4.79l-8.31.53c-.08.34-.17.69-.25,1,2,2,4,4,6.14,5.95a14.55,14.55,0,0,1,4.79,7.34l-4.21-2.4a8.64,8.64,0,0,0,0,2.21c.82,2.39.85,3.93-2.4,4.43-2.68.41-3.08,3-1.35,5.15.4.51.54,1.93.21,2.2-1.89,1.5-3.81,3.34-6.52,2.73-6.61-1.48-13.47-2.17-19.36-5.93-1.73-1.09-2.29-.16-2.56,1.31a7.13,7.13,0,0,0,0,1.9c.16,1.94-.62,2.93-2.66,2.76a22.21,22.21,0,0,0-2.45-.07q-17.11.22-34.22.48a13.19,13.19,0,0,0-2.24.52c1,.47,1.44.9,1.88.88,6.32-.31,11.56,2.53,16.69,5.68,5.53,3.39,11.32,6.44,15.16,12,1.29,1.86,2.95,2.36,5.09.86a47.59,47.59,0,0,1,6.59-3.77c2.32-1.13,4.35.47,4.12,3a31.83,31.83,0,0,0-.27,4.86,3.27,3.27,0,0,0,1.27,2.13c3.33,2.4,4,4,2.55,7.84-.57,1.52-.13,2.2.9,3.21,2.64,2.59,6,2.08,9.15,2.58A13,13,0,0,1,227.9,477c1.56,1.29,2.59,3.47,1.32,5.63a5.2,5.2,0,0,1-5.59,2.5,10.19,10.19,0,0,1-1.32-.33c-14.14-4.14-26.18,2.32-35.17,12.66a5,5,0,0,0-.1,6.28c3,4,7.48,5.94,12.34,6.85,3.21.61,6.45,1,9.25,1.47-1.25,1.72-2.67,3.55-4,5.47-1,1.47-1.79,3.07-2.71,4.59-1.19,2-1.21,4,.45,5.46a69.15,69.15,0,0,0,8.9,6.95c3.74,2.37,7.78,4.28,11.71,6.32.68.35,2.77,1.6,4.73,2.77l-2.1,4.64,5,20.27,11,3.37H243l1.83.32L655.94,459.18l-.08.09,8.57-2.43,2.69-.74v0ZM237,359.73c.23-1.19.47-2.45.82-4.29l11.68,3.18-.18,1.11ZM239.62,385l11.31,6.46-.72,1.18C245.5,392,243,387.8,239.62,385Zm11.6,33.4c-.31,1.71-.63,2.9-3,1.83-1.46-.64-3.31-.41-5.31-.6-.14-1.35-.28-2.8-.54-5.28Zm9.63,48.5c-3.51.24-6.3,1.4-8.06,4.61-3-4.15-4.66-4.32-9.42-.54l8.57,2.78c.59,1.46,1.28,3.19,1.89,4.75-3.67-2-7.47-4.09-11.2-6.27a2.1,2.1,0,0,1-.76-1.76c.22-1.23.43-2.73,1.23-3.55,3.15-3.23,2.64-7.21,2.33-11-.24-2.88.36-4.71,3.25-5.61,1.65-.52,3.22-1.32,4.82-2l.48,1.07-3.26,1.74a15.85,15.85,0,0,0,1.28,3.11c3.05,4.52,7.46,7.2,12.49,9a7.67,7.67,0,0,1,3.34,2.08C265.5,465.87,263.2,466.75,260.85,466.91Zm6.32-22.9c2.89-2.25,4.1-5,3.23-8.83a9.51,9.51,0,0,1,1.68,1c3.11,3.26,6.08,6.66,9.3,9.8,2.31,2.24,3.08,4.91,3.12,8.19C279.79,449.05,274.84,444.44,267.17,444Zm21.68-43.9c-3.82,2.29-6,5.48-4,10.76a16.45,16.45,0,0,1-2.92-1c-1.59-1-2.47-.06-3.46,1-1.23,1.28-.2,2,.49,3,3.66,5.17,7.95,9.59,13.87,12.2.18.08.24.43.8,1.51-1.8-.59-3.21-.66-4-1.39-3.4-3-6.92-5.77-11.32-7.27-1.2-.41-2.17-1.52-3.4-2.42-.69.92-1.15,1.56-1.62,2.19l-11.32-6.12c3.81-1.18,6.43,1.89,10,2.33-.95-2.16-1.71-3.89-2.46-5.58a5.74,5.74,0,0,1,.89-.71c9.07-3.28,13.41-10.69,16.2-19.17.76-2.3.3-5.12-.06-7.63-.18-1.32-.26-2.17,1.06-2.52,3.61-.95,7.25-1.81,10.87-2.7l.74,1.33c-4.37.89-6.66,3.86-8.19,8.33l4.42,2.52c0,3.89.54,4.44,4.41,5.37a11.19,11.19,0,0,1,2.76,1.59c-.07.27-.14.53-.2.8a75.19,75.19,0,0,0-7.53,1.2A22.61,22.61,0,0,0,288.85,400.11ZM302.78,431c3.14,1.17,6.24,2.43,9.35,3.67-4.37,2.93-7-.45-10.18-1.78a1.48,1.48,0,0,1-.42-1.36A1.39,1.39,0,0,1,302.78,431ZM515.63,365.9c-13.23,33.42-38.05,64.71-70.94,89.85a21.88,21.88,0,0,0-.83-3.49c31.32-24.6,55-54.92,67.68-87.24,16.59-42.17,14-84.54-6.62-120.35,2.58,2.86,7.22,7.17,10.1,10.85C530.26,289.23,530.76,327.64,515.63,365.9Zm22.45,11.57c.49-1.22,1-2.4,1.61-3.56.08-.15.15-.31.24-.46.19-.36.37-.71.57-1.06.09-.15.17-.3.27-.45.21-.36.41-.72.63-1.07l.06-.09c.47-.76,1-1.5,1.49-2.23.09-.12.17-.23.24-.34l.72-.94.36-.46.73-.9.36-.41c.49-.56,1-1.12,1.52-1.66l.32-.34.76-.75.53-.5c.25-.24.5-.46.76-.69l.59-.52c.25-.21.49-.43.76-.64s.82-.66,1.24-1l.73-.52.75-.54c.24-.17.49-.33.74-.49l.8-.52c.24-.15.48-.31.73-.45s.74-.44,1.12-.65l.44-.23.14.63.12.53a38.22,38.22,0,0,0-19.48,20.71h0Zm38.14-6.16a26.23,26.23,0,0,0-19.78,9l1.47,1.27a24.24,24.24,0,0,1,42.55,15.88,23.92,23.92,0,0,1-.67,5.61l-2.57-.64a21.58,21.58,0,0,1-42.58-5,21.17,21.17,0,0,1,.73-5.55l-6.91-1.74a28.7,28.7,0,0,1,55.67,14l-2.46-.62a26.49,26.49,0,0,0,.73-6.09A26.21,26.21,0,0,0,576.22,371.31Zm24.17,35.91a2.3,2.3,0,1,1-2.29-2.31A2.3,2.3,0,0,1,600.39,407.22Zm-5.65,8.09a2.3,2.3,0,1,1-2.3-2.29A2.3,2.3,0,0,1,594.74,415.31Zm-7.3,5.06a2.76,2.76,0,1,1-2.76-2.76A2.77,2.77,0,0,1,587.44,420.37Zm-9.88,1.47a2.3,2.3,0,1,1-2.3-2.3A2.29,2.29,0,0,1,577.56,421.84Zm-10-2.42a2.3,2.3,0,1,1-2.3-2.3A2.3,2.3,0,0,1,567.51,419.42Zm-7.31-5.37a2.68,2.68,0,1,1-2.68-2.69A2.67,2.67,0,0,1,560.2,414.05ZM552.5,404a2.3,2.3,0,1,1-2.31,2.3A2.29,2.29,0,0,1,552.5,404Zm-2.41-5.18a2.3,2.3,0,1,1,2.29-2.29A2.29,2.29,0,0,1,550.09,398.78Zm-15-5.78a43.33,43.33,0,0,1,.44-6.06l3.28.83a39.52,39.52,0,0,0,14.79,40.07A42,42,0,0,1,535.1,393Zm81.59,14.35a42.17,42.17,0,0,1-24.93,25.09A39.25,39.25,0,0,0,614,406.67Zm-3.66-.92a37.9,37.9,0,0,1-36.39,28.11c-20.81,0-37.74-17.16-37.74-38.25a39,39,0,0,1,.9-8.28l6.41,1.62a31,31,0,1,0,60.16,15.12Zm3.73-58-.91,1.29c-.78-.7-1.58-1.38-2.41-2L612,349.47q1.31,1,2.52,2.16c-2.06,2.88-4.23,5.79-6.45,8.67-.69.89-1.38,1.77-2.11,2.68l-1,1.25a44.48,44.48,0,0,0-14.39-8.49,43.46,43.46,0,0,0-27.67-.7l-.22-1c-.25-1.07-.5-2.15-.77-3.24v-.09c-.85-3.51-1.76-7-2.71-10.52,1.49-.5,3-1,4.51-1.33l-.56-2.27c-1.54.39-3.06.84-4.55,1.35-.17-.57-.31-1.16-.48-1.73L558,336a59.85,59.85,0,0,1,59,12.08A3.53,3.53,0,0,0,616.76,348.42ZM661,238.29a267.08,267.08,0,0,1-41.82,106.54,64.22,64.22,0,0,0-13.43-9l-4.11-7.42-.85-14.56-8.6-4.59-9.66,1.34-5.82,13.37-6.26,5.42A63.1,63.1,0,0,0,557,332.28c-8.72-29.82-22.65-63.91-44.87-94.74a153.31,153.31,0,0,0-20-25.91q-4.73-4.95-9.71-9.46a11.21,11.21,0,0,1-1.55-6.24,149,149,0,0,0-1-18.16c-.46-4.16-1.92-8.09-6.51-10.48-.21,1.05-.39,1.78-.5,2.51-1,6.77-6.82,10.2-13.51,9.58-9.4-.87-14.68-5.7-17.26-14.32-.26-.85-.87-1.59-1.21-2.43-1-2.47-2.83-3-5.28-2.51-5.05,1.07-10.12,2.06-15.17,3.14l-.39.08c-1.51-.62-3-1.24-4.53-1.83-.14-.4-.29-.86-.47-1.39a4.8,4.8,0,0,0-2.52-2.41,13,13,0,0,0-4-.69c-6.68-.71-10-5.68-8.08-12.24.19-.67.41-1.33.79-2.58a17,17,0,0,0-2.47,1.19c-3.84,2.9-7.63,5.87-11.5,8.74a352.44,352.44,0,0,0-69.49-11.44,422,422,0,0,0-76.32,1.86A294,294,0,0,1,350.63,59.79C382.52,46,414.89,39,446.84,39c37.87,0,73.21,7.35,105,21.84A230.09,230.09,0,0,1,630,119.17a254.2,254.2,0,0,1,34.47,50.77A324.53,324.53,0,0,1,661,238.29ZM484.49,224.85c-2.37-2.39-6.34-3.46-6.34-7.81C480.72,219.27,484,220.94,484.49,224.85Zm-123.63-26.4c-.92,5.37-.46,11-.62,16.48,0,1.13,0,2.26,0,3.79-.47-.51-.68-.63-.68-.76-.47-10.83-2-21.67-.14-32.5A46,46,0,0,1,366.48,168c1.71-2.63,3.85-4.35,7.36-4.2,1.48.07,3-1.18,4.71-1.9a1.62,1.62,0,0,1,1.32,0,.85.85,0,0,1-.13.36,48.72,48.72,0,0,1-5,5.94C366.37,176.51,362.81,187.21,360.86,198.45Zm4.72,45.94-1.12.49c-.71-.84-1.72-1.57-2.07-2.53-2.19-6.18-3.57-12.5-2.65-19.2C360.78,230.46,361.1,237.94,365.58,244.39Zm-46.75-63.21c-1.89,7.54-4.27,15-5.17,22.72-.85,7.32-.47,14.89,3.28,21.76-2.68-2.22-3.2-5.51-4.34-8.5s-2.69-5.87-2.47-9.31c.21-3.28,0-6.58,0-10.2a21.31,21.31,0,0,0-4.6,1.07c-3,1.37-5.58,1.88-7.59-1.94-4.42,3.19-8.85,5.78-12.47,9.24-2.2,2.1-3.52,5.41-4.47,8.42-.41,1.3.68,3.65,1.82,4.76a102.18,102.18,0,0,0,10.52,9c4.34,3.23,8.94,6.09,13.43,9.1l-.12.4c-3-.83-6-1.71-9.09-2.47a12.84,12.84,0,0,0-3.49-.37c-1.78.06-2.64,1-2.17,2.88.42,1.71.76,3.44,1.23,5.62-3.63-.79-6.88-1.41-10.08-2.21-3.89-1-3.87-1-5,2.85-8.5-2.19-16.53.81-24.95,1.81,1.93-1,3.82-2.1,5.81-3,3.78-1.63,7.51-3.89,11.87-1.5.36.2,1.59-.51,1.93-1.08a12.25,12.25,0,0,0,1.66-4c.9-4.77,4.14-7.69,7.8-10.34.77-.56,1.45-1.24,2.18-1.86-.06-.26-.11-.52-.17-.77l-7.1-.39c1.27-5.09,2.21-10.24,3.86-15.14s1.2-7.64-2.89-10.92a3.28,3.28,0,0,1-.9-2.89c1.12-3.43,2.55-6.76,3.89-10.12.29-.72.66-1.4,1.21-2.56-1.18.12-2.1-.06-2.48.3-2.38,2.31-5.74,3.38-7.51,6.5-1.06,1.86-2,4.49-5.2,3.66-.24-.07-.78.42-1,.76-2.21,4.14-4.17,8.42-6.59,12.42-5.1,8.41-10.41,16.7-15.68,25-1.59,2.5-3.32,4.89-5.16,7.59-1.8-2.39-.59-4.24.46-5.88,2.36-3.65,4.91-7.18,7.4-10.74.81-1.15,1.62-2.06.87-3.81-.36-.82.65-2.51,1.42-3.5,2.49-3.22,5.24-6.22,7.7-9.45.8-1.06,1-2.58,1.53-4,1.52-2.13,3.2-4.43,4.81-6.78.78-1.13.72-2-.67-2.87-3.56-2.23-5.67-1.83-7.82,1.73q-1.6,2.67-3.23,5.34l-.71-.35a4.34,4.34,0,0,1,.15-1.22c2.06-4.44,4-9,6.29-13.24,1-1.9,3-3.28,4.33-5.06a14.89,14.89,0,0,0,1.43-3.39,10.55,10.55,0,0,0-3.25.17c-2.86,1.1-5.18,2.82-6.29,5.93a21.27,21.27,0,0,1-3.55,6.19,14.92,14.92,0,0,1,.72-3.17c2.31-4.92,1.05-9.86.49-14.89a15.28,15.28,0,0,1,0-3.31c6.5-1.26,13.15-2.43,19.57-3.43a10.2,10.2,0,0,1,.44,5.21,6,6,0,0,0,.2,3c1.71-1,3.48-1.82,5.09-2.92.39-.27.47-1.42.27-2-.46-1.34-1-2.66-1.47-4,5.51-.8,10.79-1.46,15.57-1.92,6.69-.65,13.85-1.25,21.3-1.67-2.08,6.36-3.08,12.54.27,19.43,6.37-9,14.17-15,23.07-20h0a241.29,241.29,0,0,1,26.17,1.65c-3.16.95-6.21,2.36-9.43,3.06a13.31,13.31,0,0,0-5.31,2.41A91.42,91.42,0,0,1,321,178.84,4,4,0,0,0,318.83,181.18Zm11.74,79.68c-1.59,1.89-3.12,1.91-5.35,1.67a106.32,106.32,0,0,0-17.3-.43c-7.77.46-15.5,1.56-23.25,2.37a12.88,12.88,0,0,1-1.4,0C287.49,260,321.76,258.3,330.57,260.86Zm-73.08-4.43c.33-.9,1.73-1.42,2.67-2.1l.62.68c-.35,1.31-.69,2.62-1,3.93l-.8.28C258.41,258.27,257.25,257.1,257.49,256.43Zm.91,6.63a38,38,0,0,1-2.74,3,1.85,1.85,0,0,1-1.62.43c-3.21-1.92-6.36-3.95-10.14-6.34C249.78,258.24,253.88,260.92,258.4,263.06ZM230,157.51c2.37-2.82,4.84-5.61,7.37-8.37,4.79-.56,9.91-1.07,15.29-1.53l-.05,0,.29,0,3.05-.25c-2.24,2-4.47,4.64-7.22,6.4-.28.18-.58.35-.88.52Q239,155.75,230,157.51Zm.81,26.49a57.21,57.21,0,0,1-4.91-6.37,47.71,47.71,0,0,1-2.95-6.16c1.54-.41,3.13-.82,4.79-1.23A34.89,34.89,0,0,1,230.76,184Zm31.69-27.1a8.3,8.3,0,0,1,6.43,2.43c-5.81.92-11.79,2-17.66,3.1.17-1,.36-1.91.53-2.86.06-.32.48-.65,1-.91C256,158,259.25,157.45,262.45,156.9Zm-25,4.88c3-.67,6-1.29,9-1.89a1.37,1.37,0,0,1,.94.33,1.88,1.88,0,0,1,.15,1.72c-.31.47-.64.93-1,1.4q-3.87.78-7.61,1.59l-3.66-2.46Zm7,4.69-1,1.43L242,167Zm39.19-17.41-10.33.78-2.95-3.45c15.53-.83,32.71-1.1,50.95-.47C309.23,146.48,296.7,147.52,283.6,149.06Zm88,6.34L368.94,157c-27.42-4.37-55.74-2.7-78.71-.48-5,.48-10.49,1.18-16.25,2-.24-.69-.48-1.38-.69-2.08-.08-.29.44-1,1-1.43a366.41,366.41,0,0,1,39.81-3.63A266.92,266.92,0,0,1,371.59,155.4ZM261.82,113.15C314.3,62.84,381.74,34,446.84,34c38.59,0,74.62,7.5,107.1,22.28a235,235,0,0,1,79.86,59.61,257.27,257.27,0,0,1,29.94,42.18c.15,1.87.29,3.74.41,5.59A256,256,0,0,0,632,117.43a232.51,232.51,0,0,0-79.06-59c-32.17-14.65-67.87-22.07-106.12-22.07-32.31,0-65,7.08-97.26,21a296.56,296.56,0,0,0-112,85.65l-3.4.46A295.56,295.56,0,0,1,261.82,113.15Zm-32.75,37c1.09-.17,2.2-.35,3.34-.51-2,2.7-4,5.42-5.94,8.18a14.62,14.62,0,0,1-1.32.77l-2.52.6Q225.75,154.66,229.07,150.19Zm-5.29,16c.27-.24,1.48.05,1.77.46s.55.83.81,1.25c-1.42.35-2.81.71-4.15,1.07L222,169l-.1-.27C221.66,168.14,223,166.87,223.78,166.16Zm-7.15,7.07c1.52,3.93,2.89,7.46,4.25,11l-.63.47c-2.6-2.25-5.24-4.46-7.77-6.8a2.07,2.07,0,0,1-.27-1.92c.87-1.63,2-3.14,3.4-5.38l.94,2.43-.18.29Zm-8.25-18.78c1.19-.31,2.46-.64,3.83-1,2.57-.61,5.46-1.24,8.63-1.85q-3.41,4.77-6.58,9.66c-.12.18-.23.36-.34.54a8.12,8.12,0,0,1-2.59-.12c-1.59-1.41-4.65-4.23-6.73-6.17C205.73,155.2,207,154.83,208.38,154.45ZM194,165.34c3.32,4.41,3.32,4.41,7.39,2.81.4,1.4,1.46,3.06,1,4.08-.71,1.66-2.52,2.12-4.57,1.7a9.87,9.87,0,0,0-8,2,8.16,8.16,0,0,1-1.64.75C186.54,172.85,189,168.14,194,165.34Zm29.29,57.34c-2.15-2.52-4-4.77-6-7-1.49-1.71-3.12-3.3-4.48-5.11-2.15-2.86-4-5.93-6.21-8.78q-5.35-7-11-13.74c-2-2.36-4.25-4.46-6.33-6.73A39.77,39.77,0,0,1,187,178.1C196.23,179.94,223.53,213.56,223.29,222.68Zm-15.85-.84c-6.26-1-18.66-10.93-19.14-15.68C195.14,211.25,201.8,215.43,207.44,221.84Zm15,64.48c-1.22,3.22-1.85,6.67-5.25,8.8-1.62,1-2.44,3.3-3.64,5-.59.84-1.21,1.67-1.82,2.5l-.9-.51c3.39-8.84,6.54-17.81,14.63-24.05C224.44,280.81,223.47,283.58,222.43,286.32Zm9.91-3.81a3.41,3.41,0,0,1-.31-1.85c1.13-3.83-.67-6.77-2.76-9.65a4.17,4.17,0,0,1-.61-1.21c-1.15-3.82-1.15-3.84-5.27-3.41-5.59.58-11.16,1.25-16.76,1.76a25.75,25.75,0,0,1-4.35-.32c-.46-2.06.19-2.77,1.83-3.25,6.56-1.94,13-4.07,19.88-4.89,1.55-.18,3-1.3,4-1.77-4.48-10.28-13.54-14-22.57-17.67l-8.94-3.68a24.5,24.5,0,0,0,1.7,2.28c3.7,3.79,7.21,7.63,7.72,13.33.06.73,1.57,1.74,2.54,1.92,4.52.86,9.08,1.47,13.63,2.17.35.06.68.17,1,.26,0,.25,0,.5,0,.76-1.95.14-3.91.41-5.86.42-7.91,0-15.41-2.09-22.84-4.5-5.34-1.73-10.64-3.59-16-5.41-9.81-3.37-17.85-9.52-25.47-16.3-1.81-1.61-2.74-3.76-1.81-6.12s3.12-2.76,5.35-3.12c6.23-1,12.19.68,18.24,1.63a182.24,182.24,0,0,1,37.5,9.8,32.5,32.5,0,0,1,15.12,11.57c.12,0,.49,0,.58-.2,2.41-4.36,6.14-8.22,4.63-14a40,40,0,0,1-.92-8.71c.92,2.12,1.45,4.54,2.83,6.3,3.31,4.22,3.21,8.27.8,12.82-1.71,3.24-3.07,6.71-2.93,10.54l13-9.26.39.51c-2.91,2.94-5.89,5.81-8.69,8.85a5.6,5.6,0,0,0-1.06,3.06c-.39,3.21-.72,6.44-.9,9.67-.56,10.57,3.71,20,7.32,29.52a109.07,109.07,0,0,0,5.11,11.67c1.27,2.46,1.51,4.5-.12,6.77a22.64,22.64,0,0,0-1.58,3.06l-.86,0c-.72-1.53-1.55-3-2.13-4.58Q237.54,296.94,232.34,282.51Zm2.31,49c3.2-3.75,6.38-6.65,11.07-7.29,1.82-.25,2.83-.38,2.71-3.1-.08-1.78,2.79-3.72,4.41-5.52.68-.77,1.65-1.29,2.3-2.09,2.09-2.56,4.09-5.19,6.56-8.36,2.79,9.94,8.59,16.62,16.75,21.62l-2.75,1.11-.56.72a15.54,15.54,0,0,1,1.47.59c7,3.55,14.33,5.6,22.25,5,4.48-.32,6.92-2.74,7.33-7.19.35-3.87,1.19-4.38,4.88-3,.24.09.51.08.39.06.82-3.39,1.27-6.81,2.51-9.93s3.31-6.13,5-9.18l-.53-.5a29.75,29.75,0,0,0-3,2.65c-1.41,1.58-3.09,2.32-5.08,1.71-3-.92-5.46.14-7.86,1.76a2.85,2.85,0,0,1-2.06.4,16,16,0,0,1,2.06-2.89c3.75-3.38,7.6-6.66,11.42-10,2.39-2.07,4.93-4,7.13-6.23,2-2.07,2.4-9.44.94-12s-5.95-4.46-9.67-3.53c-5.58,1.41-11.05,3.27-16.55,5a55.92,55.92,0,0,1-8.87,2.4c4-1.94,7.89-4.22,12.05-5.74,4.63-1.7,9.57-2.57,14.28-4.1a11.48,11.48,0,0,0,4.77-3c1.62-1.76,2.54-2.33,5.67-1.51-1.75,4.42.69,7.35,3.78,10s4.63,5.38,3.76,9.71c-.93,4.59.66,8.95,3.27,12.85a7.32,7.32,0,0,0,1.06,1.23,2.47,2.47,0,0,0,.77.26c.14-.29.36-.52.34-.74-.74-9,3.89-15.84,9.55-22,4.91-5.36,18.19-8.75,24.81-6.78a13.17,13.17,0,0,1,3.51,1.41c2.15,1.41,3.13.79,3.42-1.58.06-.42.17-.84.29-1.43,3.27,1.39,6.93,1.89,7.51,6.2,3-.64,1.25-2.05.92-2.87,1.81-.95,3.52-1.73,5.08-2.74a2.09,2.09,0,0,0,.56-1.89c-.81-2.56.1-4.67,1.56-6.6,1.3-1.7,1-3-.65-4.12a44.09,44.09,0,0,0-5.19-3.45,4.5,4.5,0,0,0-3.27-.14c-5.4,2.05-8.5,5.94-8.62,11.92-3.61-2-7-4.14-10.52-5.75-4-1.82-8.28-3-12.34-4.73-6-2.49-12-5.07-17.84-7.85-1.55-.74-2.69-2.36-3.82-3.4l-1.83-4c5.79,2.7,11.46,5.31,17.09,8,6,2.83,11.84,5.9,17.91,8.49,3.57,1.52,7.37,1.3,11.7-1.2-5.3-1.77-9.58-3.9-10-9.65,2.12,3.37,4.25,6.69,8.7,7.22a2.28,2.28,0,0,0,.1-.62c-4.81-2.34-5.19-6.39-4.53-11.06a66.62,66.62,0,0,0,.52-10,42.08,42.08,0,0,1,4.27-18.57,10.51,10.51,0,0,1,1.34,1.16c6.85,8.74,19.2,8,24.87-1.52a45.45,45.45,0,0,0,2.83-6.46c.69-1.76,1.5-2.81,3.61-1.79s4,.47,5.68-1.54c3.38-4.11,8-6.1,13.2-6.89a4.89,4.89,0,0,1,2.93.49c-.64.43-1.32.81-1.9,1.29-5.29,4.38-10.93,8.41-15.72,13.27-4,4.08-7.32,9-10.49,13.8-8.51,12.93-1,31,14.13,34.35,2.36.51,4.69,1.68,7,1.64,14.28-.22,28.72,1.7,42.73-2.38,6.15-1.79,12-4.62,18.1-6.56a58.94,58.94,0,0,1,11.16-2.1c1.76-.21,3,1,4.42,2.44,2.34,2.4,5.55,4,8.38,5.9.61.41,1.46.77,1.71,1.36,0,.08.06.16.1.25.21-.22.42-.43.64-.64,12.9,31.54,12.78,67.08-1.15,102.5-12.44,31.64-35.53,61.36-66.13,85.57-.14-.39-.29-.8-.46-1.24s-.27-.6-.41-.88l0,0a.76.76,0,0,1-.08-.11.83.83,0,0,1-.11-.15c-2.57-4.57-7.88-4.09-11.63-3.8,1.57-2.64,2.63-5,4.21-7a29.17,29.17,0,0,1,6.21-6c2.77-1.84,3.63-4,2.55-7.54a32.79,32.79,0,0,0-10.91-15.63c-.38.07-.51.05-.55.1-5.4,8-11.6,15.75-9.19,26.48a2.27,2.27,0,0,1-.4,1.94c-3.57,2.63-3.36,6.82-4.56,10.44a4.89,4.89,0,0,1-1.75,2.56c-5,3-10,5.91-15.09,8.63a7.26,7.26,0,0,1-4,.31c-2.66-.35-5.3-.93-7.93-1.5a6.18,6.18,0,0,1-2.11-1c-.95-.64-1.8-1.42-3.14-2.5-.64,4.37-3.33,3.75-6.14,3.32a14.63,14.63,0,0,0-5.82.47c1,.43,2.09.83,3.12,1.29,4.85,2.18,6.83,6.08,5.74,11.28-.13.61-.25,1.23-.34,1.86-.45,3-1.37,3.73-4.34,3.5-5.85-.43-5.85-.43-6.3,5.5s-1.72,6.86-7.37,4.73c-3.55-1.34-7.09-2.74-10.61-4.15-4.51-1.81-8.33-.13-12,2.35a1.61,1.61,0,0,0-.58,1.36c.83,2.57-.65,4.42-2,6.21-3,4.09-6.33,7.93-11.28,9.91-1.82.72-3.11.7-4.52-.94-3.24-3.78-6.9-3.68-10.5-.15-1.05,1-1.77,3.27-4.27,1.75.4-.74.77-1.41,1.13-2.09.8-1.51,1.31-2.75-.57-4.16-2.13-1.6-2.22-4.3-.76-6.58.41-.64.88-1.23,1.43-2a5.12,5.12,0,0,0-6,1c-1.31,1.16-2.22.89-3.24-1.34,3.1-1.56,6.2-3.1,9.29-4.66A12.58,12.58,0,0,0,311,479.5c1.92-1.88.83-4.64-2-5.68s-5.86-2.17-8.68-3.49a3,3,0,0,1-1.3-2.34c.39-7.68,5.64-11.06,12.93-8.45l1.72.61a10.29,10.29,0,0,1-1.08,1.33c-4.35,3.63-4,7.29-.66,11.51,1.67,2.1,3.51,4.06,5.29,6.1-1.29,1-5.38-1.44-4.83,3.08,8,2.61,15.82,3.1,23.48-.74,1-.48,2.33-1.51,2.29-2.21a3.88,3.88,0,0,0-2.14-2.52,34,34,0,0,0-5.42-1.64c-.74-.21-1.49-.35-2.24-.52-.06-.31-.13-.62-.19-.93a10.72,10.72,0,0,1,3-1.17c1.32-.1,2.67.41,4,.47,4.68.22,6.63-1.38,6.68-6,0-2.24,1.07-2.48,2.77-3.1a24.23,24.23,0,0,0,7.23-4c2.58-2.19,2.5-5.06.51-7.81-2.93-4-7.19-5.37-12.58-3.86-2.4.68-4.78,1.41-7.37,2.17,2.3-5.13,13.55-6.26,20.33-2.28,2.52-1.43,2.86-3.73,2.23-6.27-1-4.08-4-4-7.52-2.88,3.73-5.19,4.92-10.15,1.19-15.45l.58-.43a28.34,28.34,0,0,1,2.88,3.35,14.58,14.58,0,0,1,2.1,4.64c.29,1.48-.15,3.11-.26,4.67l.68.36a29,29,0,0,0,2.31-2.26c2.46-3,4.78-5.93,8.65-7.56,4.08-1.71,4.62-4.6,4-9.11-.27-2,.83-4.37,1.88-6.26,2.15-3.87,5.57-6.51,9.44-8.75,1,1.86,1,3.25-.78,4.35a25.69,25.69,0,0,0-3.3,2.36,16.47,16.47,0,0,0-3.43,3.39c-1.81,2.86-.26,6,3,6.64a9.83,9.83,0,0,1,3.55,1.11c-.7.39-1.38.82-2.09,1.18a54.51,54.51,0,0,0-5.55,2.82c-1.67,1.12-3.1,2.27-2,5,.66,1.62-.67,4-.75,6,0,1,.68,2.08,1.06,3.12l.93.23c2.73-3.85,5.42-7.73,8.24-11.51.64-.85,1.74-1.89,2.62-1.88,1.61,0,2.68,1.06,1.94,3a.72.72,0,0,0,0,.54c2.12,3.57-.73,5.21-2.86,6.94-2.43,2-5.11,3.68-7.65,5.55a11.76,11.76,0,0,0-5,7.25,6.73,6.73,0,0,0,1.68-.12c2.31-.92,4.34-1.53,6,1.4.56,1,2.38,1.72,3.72,1.89,3.93.48,7.9.7,11.87.83a5.89,5.89,0,0,0,2.64-1.17c.83-.48,1.57-1.09,2.6-1.84.26,1.17.42,1.91.75,3.44a36.89,36.89,0,0,0,5.25-2.34,70.27,70.27,0,0,0,8.9-6.44c2.18-2,3.79-4.55,5.54-6.7-1.17-.86-3.2-2.18-5-3.76s-2.2-3.1.15-4.82a71.74,71.74,0,0,0,6.08-5.55l-3.31-1.87a32.14,32.14,0,0,0,2-20.32c-1.17-5.51-4.55-9.59-8.13-13.57-1.3-1.43-2.9-1.6-4.63-.33-1.22.9-2.76,1.37-4,2.25a15,15,0,0,0-3.71,3.33c-1.61,2.35-3,2.79-5.4,1.12a5.41,5.41,0,0,0-7.35,1.23c-.31.42-.63.83-1.09,1.42a47.93,47.93,0,0,1,0-6.26c.74-5.35-2-9.18-5.66-12.27-2.7-2.32-6.45-1.28-9.38-.19-7.07,2.62-12.44,7.67-16.9,13.65a4.83,4.83,0,0,0,.19,6.09c2,2.67,1,5.39.6,8.17-4.23-.07-2.07-3.44-3.16-5.22A5.68,5.68,0,0,1,347,400c-.72-.4-1.65-1.21-1.7-1.9-.53-7.55-3.95-10.59-11.55-10.09a9.51,9.51,0,0,1-1.58-.33c1.1-.68,1.66-1.27,2.3-1.36a25.2,25.2,0,0,1,3.25,0c4.46-.06,6.36-3.23,4.58-7.42-.54-1.27-.46-2.88-1.19-4a41.87,41.87,0,0,0-5.75-7.38c-.79-.75-3-.43-4.44,0-3.8,1.13-7.51,2.57-11.26,3.89l-3.34,1.17-.51-.82c1-1.05,1.9-2.45,3.14-3.08a98.14,98.14,0,0,1,10.36-4.53c2.24-.83,2.85-1.66,1.17-3.35-4.78-4.81-10.11-8.46-17.46-7.46a53,53,0,0,1-6.7,0c-.2,1.37-.45,3.12-.72,5-2.61-1-5.1-2-7.53-3-.39-.17-.59-1-.66-1.54,0-.4.28-.84.45-1.26,2.23-5.45,2.15-5.68-2.89-8.81a5.58,5.58,0,0,1-1.37-.86c-6.31-7.33-14.95-9.41-23.92-11.31-5.21-1.1-9.84.23-14.7,1.12-1.19.22-2.66.5-3.65,0-4.76-2.3-9.64-2.17-14.63-1.2A13.93,13.93,0,0,1,234.65,331.53Zm113.82,84.52c2-2.69,6.08-3.28,10.13-.94L350.76,422ZM385.62,418c1.1-1.23,1.65-3,2.44-4.44,2.92,2.63,2.55,5.51-1.33,9.56C384.17,421.72,383.58,420.25,385.62,418Z" />
  <path class="cls-2"
    d="M895.47,349.87a75.32,75.32,0,0,1,13.58.88,13.28,13.28,0,0,1,6.58,3.94c1.16,1.75,1.75,4.24,1.75,7.45a56.62,56.62,0,0,1-.87,10.08l-.88,4.39q-1.32,6.13-4.82,9.2a18.27,18.27,0,0,1-9.65,3.95c3.8.59,6.58,1.75,8.33,3.5s2.63,4.24,2.63,7.45a74.72,74.72,0,0,1-1.31,9.65l-.88,7q-1.75,10.1-7,13.59-5.7,3.94-17.1,3.94h-35.5l14.9-85Zm1.31,57.42c.58-4.09.88-6.42.88-7a4.74,4.74,0,0,0-1.32-3.51c-1.17-.58-3.65-.88-7.45-.88H872.23l-4.82,27.18h16.66a17,17,0,0,0,6.14-.88,7,7,0,0,0,3.5-3.07,21.15,21.15,0,0,0,2.19-6.57Zm4.82-35.07c.29-2.63.44-4.38.44-5.26a5.37,5.37,0,0,0-1.31-3.94c-.88-.58-3.81-.88-8.77-.88H878.37L874,384.94h14.9q6.57,0,8.77-1.76c1.46-.88,2.48-2.92,3.07-6.14Z" />
  <path class="cls-2" d="M957.5,422.63h33.31l-5.26,12.27H940l14.91-85h14.9Z" />
  <path class="cls-2"
    d="M1087.91,349.87l-11.4,64a61.06,61.06,0,0,1-3.07,11.84,15.81,15.81,0,0,1-5.69,6.57,19.75,19.75,0,0,1-6.14,2.63,41.32,41.32,0,0,1-9.64.88h-14.91q-11.83,0-17.09-3.94-5.26-3.51-5.26-12.72a81.23,81.23,0,0,1,1.75-14l9.64-55.23H1041l-8.77,50.41q-2.19,13.14-2.19,15.78,0,4.38,3.07,5.69c1.75,1.18,5.11,1.76,10.08,1.76h6.57a19.26,19.26,0,0,0,6.14-.88,8.86,8.86,0,0,0,3.95-3.51q1.31-2.62,2.63-10.52L1073,349.87Z" />
  <path class="cls-2"
    d="M1168.35,362.14h-29.81l-4.38,23.67h29.37l-4.82,11.84H1132l-4,25h33.32l-5.26,12.27h-45.59l14.9-85h48.22Z" />
  <path class="cls-2"
    d="M1248.79,349.87h3.07c1.46.29,3.51.59,6.14.88a9.43,9.43,0,0,1,5.69,2.63,10.6,10.6,0,0,1,2.2,7,89,89,0,0,1-1.32,13.15l-2.19,11a62.32,62.32,0,0,1-3.07,11.39,15.48,15.48,0,0,1-5.7,7,19.59,19.59,0,0,1-6.13,2.63,44.53,44.53,0,0,1-10.08.87h-21l-5.26,28.49h-14.91l14.91-85Zm.44,23.67c.88-4.39,1.32-6.86,1.32-7.45a4.19,4.19,0,0,0-1.32-3.07c-.88-.58-3.22-.88-7-.88h-18l-5.7,32.44h17.09a18.64,18.64,0,0,0,4.39-.44,6.52,6.52,0,0,0,3.06-1.75,9.47,9.47,0,0,0,2.63-3.07q1.32-2.19,2.63-9.65Z" />
  <path class="cls-2"
    d="M1312.58,435.78q-11.83,0-17.1-3.94-5.25-3.51-5.26-12.72a80.47,80.47,0,0,1,1.76-14l5.69-33.75a44.08,44.08,0,0,1,3.51-11.84,15.83,15.83,0,0,1,5.7-6.57,15,15,0,0,1,6.14-2.63,41.7,41.7,0,0,1,9.64-.88h18.85q11.84,0,17.09,3.51,5.26,3.94,5.26,13.15a81.76,81.76,0,0,1-1.75,13.58L1356,413.86a36.52,36.52,0,0,1-3.07,11.84,15.76,15.76,0,0,1-5.7,6.57,15,15,0,0,1-6.13,2.63,38.07,38.07,0,0,1-9.65.88Zm6.13-12.27h11a17.78,17.78,0,0,0,5.7-.88,8.79,8.79,0,0,0,3.94-3.51q1.32-2.62,2.63-10.52l4.39-23.66q2.19-12.27,2.19-16.66c0-2.63-.88-4.39-2.63-5.26-2.05-.88-5.55-1.32-10.52-1.32h-11a14.22,14.22,0,0,0-5.26.88,6.63,6.63,0,0,0-3.94,3.51c-1.17,1.75-2.35,5.26-3.51,10.52l-3.94,23.67q-2.21,12.71-2.2,15.78,0,4.38,3.07,5.69C1310.39,422.93,1313.74,423.51,1318.71,423.51Z" />
  <path class="cls-2"
    d="M1410.55,434.9q-11.83,0-17.09-3.94-5.26-3.51-5.26-12.71a68.74,68.74,0,0,1,1.75-13.59l5.7-32.88a52.33,52.33,0,0,1,3.5-11.83,15.83,15.83,0,0,1,5.7-6.57,34.53,34.53,0,0,1,5.7-2.63,43.79,43.79,0,0,1,10.08-.88h28.06l-5.26,12.71h-21a15.4,15.4,0,0,0-5.7.88,7.17,7.17,0,0,0-3.51,3.06q-1.76,2.64-3.51,10.52l-3.94,22.8c-1.47,7.89-2.19,13.15-2.19,15.78s1,4.38,3.07,5.26q3.06,1.75,10.08,1.75h21l-5.26,12.27Z" />
  <path class="cls-2"
    d="M1537.46,349.87h14.9l-14.9,85h-14.91l6.58-37.25h-35.07l-7,37.25h-14.9l14.9-85H1502l-6.14,35.5h35.51Z" />
</svg>